<?xml version="1.0" encoding="UTF-8" standalone="no"?>
<svg xmlns="http://www.w3.org/2000/svg" width="33px" height="33px" viewBox="0 0 100 100">
    <defs id="defs2"/>
    <g id="layer1">
        <path id="path910" d="M 48.852355,0.20611377 A 49.806946,49.806946 0 0 0 1.7144473,37.787439 49.806946,49.806946 0 0 0 37.786575,98.286419 49.806946,49.806946 0 0 0 98.285553,62.214292 49.806946,49.806946 0 0 0 62.213428,1.715313 49.806946,49.806946 0 0 0 48.852355,0.20611377 Z M 41.578468,36.789704 c 2.971411,-0.02284 4.938051,-0.02425 4.935761,0.01764 -0.270155,4.922688 -3.65332,5.47998 -3.65332,5.47998 l -29.052712,0.16629 v -5.313692 c 0.906245,-0.0041 18.85604,-0.281663 27.770271,-0.350214 z m 38.599216,0 c 3.031164,-0.02284 5.038865,-0.02425 5.036543,0.01764 -0.275588,4.922688 -4.958438,5.656348 -4.958438,5.656348 l -28.405191,-0.01007 v -5.313681 c 0.924465,-0.0041 19.233598,-0.281664 28.327086,-0.350215 z M 13.445385,48.052008 h 5.459824 c 0,0 -0.116642,6.750308 -0.05795,8.687343 0.0587,1.937036 1.819102,2.348203 1.819102,2.348203 l 20.486309,-0.06046 -0.176369,-5.575721 c 0,0 -7.454832,0.05972 -12.03328,0.118422 -4.578444,0.0587 -4.520038,-5.341405 -4.520038,-5.341405 h 21.894724 l -0.118422,16.200584 c 0,0 -24.770204,0.233288 -28.46818,0.115893 -3.697978,-0.117402 -4.225255,-3.638203 -4.225255,-3.638203 z m 38.332146,0.176369 h 5.63367 c 1e-6,0 -2.72e-4,6.162982 -0.176366,7.923925 -0.176095,1.76094 1.526835,2.640468 1.526835,2.640468 -0.208399,1.091881 26.462559,0.1854 26.414764,0.410683 -0.848212,3.998259 -4.477415,5.473175 -4.46209,5.459823 0,0 -20.779063,-0.176366 -24.887927,-0.176366 -4.108862,0 -4.109355,-3.932989 -4.109355,-3.932989 z" style="opacity:0.98400005;fill:#ffffff;fill-opacity:1;stroke:none;stroke-width:0.64499998;stroke-linecap:round;stroke-linejoin:round;stroke-miterlimit:4;stroke-dasharray:none;stroke-opacity:1"/>
    </g>
</svg>
